<mxfile host="65bd71144e" modified="2020-12-31T03:10:29.399Z" agent="5.0 (Windows NT 10.0; Win64; x64) AppleWebKit/537.36 (KHTML, like Gecko) Code/1.52.1 Chrome/83.0.4103.122 Electron/9.3.5 Safari/537.36" version="13.10.0" etag="h7p8skyIIIDJivACwrEd" type="embed">
    <diagram id="L3m2mchw89ve_FSX7ptV" name="第 1 页">
        <mxGraphModel dx="271" dy="1919" grid="1" gridSize="10" guides="1" tooltips="1" connect="1" arrows="1" fold="1" page="1" pageScale="1" pageWidth="1169" pageHeight="827" math="0" shadow="0">
            <root>
                <mxCell id="0"/>
                <mxCell id="1" parent="0"/>
                <mxCell id="3" value="" style="rounded=1;whiteSpace=wrap;html=1;" vertex="1" parent="1">
                    <mxGeometry x="180" y="-1620" width="100" height="50" as="geometry"/>
                </mxCell>
                <mxCell id="4" value="开始" style="text;html=1;strokeColor=none;fillColor=none;align=center;verticalAlign=middle;whiteSpace=wrap;rounded=0;" vertex="1" parent="1">
                    <mxGeometry x="210" y="-1605" width="40" height="20" as="geometry"/>
                </mxCell>
                <mxCell id="5" value="" style="shape=parallelogram;perimeter=parallelogramPerimeter;whiteSpace=wrap;html=1;fixedSize=1;" vertex="1" parent="1">
                    <mxGeometry x="180" y="-1540" width="100" height="50" as="geometry"/>
                </mxCell>
                <mxCell id="6" value="输入用户名" style="text;html=1;strokeColor=none;fillColor=none;align=center;verticalAlign=middle;whiteSpace=wrap;rounded=0;" vertex="1" parent="1">
                    <mxGeometry x="195" y="-1525" width="70" height="20" as="geometry"/>
                </mxCell>
                <mxCell id="7" value="" style="endArrow=classic;html=1;entryX=0.5;entryY=0;entryDx=0;entryDy=0;exitX=0.5;exitY=1;exitDx=0;exitDy=0;" edge="1" parent="1" source="3" target="5">
                    <mxGeometry width="50" height="50" relative="1" as="geometry">
                        <mxPoint x="200" y="-1500" as="sourcePoint"/>
                        <mxPoint x="250" y="-1550" as="targetPoint"/>
                    </mxGeometry>
                </mxCell>
                <mxCell id="8" value="" style="rhombus;whiteSpace=wrap;html=1;" vertex="1" parent="1">
                    <mxGeometry x="180" y="-1460" width="100" height="50" as="geometry"/>
                </mxCell>
                <mxCell id="9" value="验证用户是否存在" style="text;html=1;strokeColor=none;fillColor=none;align=center;verticalAlign=middle;whiteSpace=wrap;rounded=0;" vertex="1" parent="1">
                    <mxGeometry x="205" y="-1445" width="50" height="20" as="geometry"/>
                </mxCell>
                <mxCell id="18" value="" style="edgeStyle=elbowEdgeStyle;elbow=horizontal;endArrow=classic;html=1;exitX=1;exitY=0.5;exitDx=0;exitDy=0;entryX=1;entryY=0.5;entryDx=0;entryDy=0;fontFamily=Helvetica;" edge="1" parent="1" source="8" target="5">
                    <mxGeometry width="50" height="50" relative="1" as="geometry">
                        <mxPoint x="200" y="-1500" as="sourcePoint"/>
                        <mxPoint x="340" y="-1460" as="targetPoint"/>
                        <Array as="points">
                            <mxPoint x="300" y="-1460"/>
                        </Array>
                    </mxGeometry>
                </mxCell>
                <mxCell id="19" value="" style="endArrow=classic;html=1;fontFamily=Helvetica;entryX=0.5;entryY=0;entryDx=0;entryDy=0;exitX=0.5;exitY=1;exitDx=0;exitDy=0;" edge="1" parent="1" source="5" target="8">
                    <mxGeometry width="50" height="50" relative="1" as="geometry">
                        <mxPoint x="200" y="-1450" as="sourcePoint"/>
                        <mxPoint x="250" y="-1500" as="targetPoint"/>
                    </mxGeometry>
                </mxCell>
                <mxCell id="20" value="" style="shape=parallelogram;perimeter=parallelogramPerimeter;whiteSpace=wrap;html=1;fixedSize=1;" vertex="1" parent="1">
                    <mxGeometry x="180" y="-1380" width="100" height="50" as="geometry"/>
                </mxCell>
                <mxCell id="22" value="输入密码" style="text;html=1;strokeColor=none;fillColor=none;align=center;verticalAlign=middle;whiteSpace=wrap;rounded=0;fontFamily=Helvetica;" vertex="1" parent="1">
                    <mxGeometry x="205" y="-1365" width="45" height="20" as="geometry"/>
                </mxCell>
                <mxCell id="23" value="" style="endArrow=classic;html=1;fontFamily=Helvetica;entryX=0.5;entryY=0;entryDx=0;entryDy=0;" edge="1" parent="1" target="20">
                    <mxGeometry width="50" height="50" relative="1" as="geometry">
                        <mxPoint x="230" y="-1409" as="sourcePoint"/>
                        <mxPoint x="230" y="-1379" as="targetPoint"/>
                    </mxGeometry>
                </mxCell>
                <mxCell id="26" value="" style="rhombus;whiteSpace=wrap;html=1;" vertex="1" parent="1">
                    <mxGeometry x="180" y="-1280" width="100" height="50" as="geometry"/>
                </mxCell>
                <mxCell id="27" value="验证密码是否正确" style="text;html=1;strokeColor=none;fillColor=none;align=center;verticalAlign=middle;whiteSpace=wrap;rounded=0;fontFamily=Helvetica;" vertex="1" parent="1">
                    <mxGeometry x="205" y="-1265" width="50" height="20" as="geometry"/>
                </mxCell>
                <mxCell id="28" value="" style="endArrow=classic;html=1;fontFamily=Helvetica;entryX=0.5;entryY=0;entryDx=0;entryDy=0;exitX=0.5;exitY=1;exitDx=0;exitDy=0;" edge="1" parent="1" source="20" target="26">
                    <mxGeometry width="50" height="50" relative="1" as="geometry">
                        <mxPoint x="230" y="-1315" as="sourcePoint"/>
                        <mxPoint x="230" y="-1275" as="targetPoint"/>
                    </mxGeometry>
                </mxCell>
                <mxCell id="29" value="" style="rhombus;whiteSpace=wrap;html=1;" vertex="1" parent="1">
                    <mxGeometry x="50" y="-1330" width="100" height="50" as="geometry"/>
                </mxCell>
                <mxCell id="30" value="" style="edgeStyle=elbowEdgeStyle;elbow=horizontal;endArrow=classic;html=1;fontFamily=Helvetica;entryX=0;entryY=0.5;entryDx=0;entryDy=0;exitX=0.5;exitY=0;exitDx=0;exitDy=0;" edge="1" parent="1" source="29" target="20">
                    <mxGeometry width="50" height="50" relative="1" as="geometry">
                        <mxPoint x="130" y="-1240" as="sourcePoint"/>
                        <mxPoint x="180" y="-1290" as="targetPoint"/>
                        <Array as="points">
                            <mxPoint x="100" y="-1335"/>
                        </Array>
                    </mxGeometry>
                </mxCell>
                <mxCell id="31" value="" style="edgeStyle=elbowEdgeStyle;elbow=vertical;endArrow=classic;html=1;fontFamily=Helvetica;entryX=0.5;entryY=1;entryDx=0;entryDy=0;exitX=0;exitY=0.5;exitDx=0;exitDy=0;" edge="1" parent="1" source="26" target="29">
                    <mxGeometry width="50" height="50" relative="1" as="geometry">
                        <mxPoint x="180" y="-1250" as="sourcePoint"/>
                        <mxPoint x="97.5" y="-1260" as="targetPoint"/>
                        <Array as="points">
                            <mxPoint x="110" y="-1255"/>
                        </Array>
                    </mxGeometry>
                </mxCell>
                <mxCell id="32" value="次数是否超过三次" style="text;html=1;strokeColor=none;fillColor=none;align=center;verticalAlign=middle;whiteSpace=wrap;rounded=0;fontFamily=Helvetica;" vertex="1" parent="1">
                    <mxGeometry x="70" y="-1315" width="55" height="20" as="geometry"/>
                </mxCell>
                <mxCell id="33" value="" style="rounded=0;whiteSpace=wrap;html=1;fillColor=none;fontFamily=Helvetica;" vertex="1" parent="1">
                    <mxGeometry x="180" y="-1200" width="100" height="50" as="geometry"/>
                </mxCell>
                <mxCell id="34" value="" style="endArrow=classic;html=1;fontFamily=Helvetica;entryX=0.5;entryY=0;entryDx=0;entryDy=0;exitX=0.5;exitY=1;exitDx=0;exitDy=0;" edge="1" parent="1" source="26" target="33">
                    <mxGeometry width="50" height="50" relative="1" as="geometry">
                        <mxPoint x="150" y="-1130" as="sourcePoint"/>
                        <mxPoint x="200" y="-1180" as="targetPoint"/>
                    </mxGeometry>
                </mxCell>
                <mxCell id="35" value="登陆成功" style="text;html=1;strokeColor=none;fillColor=none;align=center;verticalAlign=middle;whiteSpace=wrap;rounded=0;fontFamily=Helvetica;" vertex="1" parent="1">
                    <mxGeometry x="205" y="-1185" width="50" height="20" as="geometry"/>
                </mxCell>
                <mxCell id="36" value="" style="rounded=0;whiteSpace=wrap;html=1;fillColor=none;fontFamily=Helvetica;" vertex="1" parent="1">
                    <mxGeometry x="180" y="-1120" width="100" height="50" as="geometry"/>
                </mxCell>
                <mxCell id="37" value="加载主窗体" style="text;html=1;strokeColor=none;fillColor=none;align=center;verticalAlign=middle;whiteSpace=wrap;rounded=0;fontFamily=Helvetica;" vertex="1" parent="1">
                    <mxGeometry x="197.5" y="-1105" width="65" height="20" as="geometry"/>
                </mxCell>
                <mxCell id="38" value="" style="rounded=0;whiteSpace=wrap;html=1;fillColor=none;fontFamily=Helvetica;" vertex="1" parent="1">
                    <mxGeometry x="50" y="-1120" width="100" height="50" as="geometry"/>
                </mxCell>
                <mxCell id="39" value="退出框体" style="text;html=1;strokeColor=none;fillColor=none;align=center;verticalAlign=middle;whiteSpace=wrap;rounded=0;fontFamily=Helvetica;" vertex="1" parent="1">
                    <mxGeometry x="75" y="-1105" width="50" height="20" as="geometry"/>
                </mxCell>
                <mxCell id="40" value="" style="edgeStyle=elbowEdgeStyle;elbow=vertical;endArrow=classic;html=1;fontFamily=Helvetica;entryX=0.5;entryY=0;entryDx=0;entryDy=0;" edge="1" parent="1" target="38">
                    <mxGeometry width="50" height="50" relative="1" as="geometry">
                        <mxPoint x="20" y="-1240" as="sourcePoint"/>
                        <mxPoint x="60" y="-1120" as="targetPoint"/>
                        <Array as="points">
                            <mxPoint x="70" y="-1212"/>
                        </Array>
                    </mxGeometry>
                </mxCell>
                <mxCell id="42" value="" style="edgeStyle=segmentEdgeStyle;endArrow=none;html=1;fontFamily=Helvetica;exitX=0;exitY=0.5;exitDx=0;exitDy=0;startArrow=none;startFill=0;endFill=0;" edge="1" parent="1" source="29">
                    <mxGeometry width="50" height="50" relative="1" as="geometry">
                        <mxPoint x="100" y="-1230" as="sourcePoint"/>
                        <mxPoint x="20" y="-1240" as="targetPoint"/>
                    </mxGeometry>
                </mxCell>
                <mxCell id="45" value="结束" style="text;html=1;strokeColor=none;fillColor=none;align=center;verticalAlign=middle;whiteSpace=wrap;rounded=0;fontFamily=Helvetica;" vertex="1" parent="1">
                    <mxGeometry x="202.5" y="-1025" width="50" height="20" as="geometry"/>
                </mxCell>
                <mxCell id="46" value="" style="endArrow=classic;html=1;fontFamily=Helvetica;entryX=0.5;entryY=0;entryDx=0;entryDy=0;exitX=0.5;exitY=1;exitDx=0;exitDy=0;" edge="1" parent="1" source="33" target="36">
                    <mxGeometry width="50" height="50" relative="1" as="geometry">
                        <mxPoint x="170" y="-1130" as="sourcePoint"/>
                        <mxPoint x="220" y="-1180" as="targetPoint"/>
                    </mxGeometry>
                </mxCell>
                <mxCell id="47" value="" style="endArrow=classic;html=1;fontFamily=Helvetica;entryX=0.5;entryY=0;entryDx=0;entryDy=0;exitX=0.5;exitY=1;exitDx=0;exitDy=0;" edge="1" parent="1" source="36">
                    <mxGeometry width="50" height="50" relative="1" as="geometry">
                        <mxPoint x="170" y="-1030" as="sourcePoint"/>
                        <mxPoint x="230" y="-1040" as="targetPoint"/>
                    </mxGeometry>
                </mxCell>
                <mxCell id="48" value="" style="rounded=1;whiteSpace=wrap;html=1;fillColor=none;fontFamily=Helvetica;" vertex="1" parent="1">
                    <mxGeometry x="180" y="-1040" width="100" height="50" as="geometry"/>
                </mxCell>
                <mxCell id="50" value="" style="edgeStyle=segmentEdgeStyle;endArrow=none;html=1;fontFamily=Helvetica;exitX=0.5;exitY=1;exitDx=0;exitDy=0;endFill=0;" edge="1" parent="1" source="38">
                    <mxGeometry width="50" height="50" relative="1" as="geometry">
                        <mxPoint x="170" y="-1030" as="sourcePoint"/>
                        <mxPoint x="230" y="-1060" as="targetPoint"/>
                        <Array as="points">
                            <mxPoint x="100" y="-1060"/>
                        </Array>
                    </mxGeometry>
                </mxCell>
                <mxCell id="51" value="否" style="text;html=1;strokeColor=none;fillColor=none;align=center;verticalAlign=middle;whiteSpace=wrap;rounded=0;fontFamily=Helvetica;" vertex="1" parent="1">
                    <mxGeometry x="290" y="-1480" width="40" height="20" as="geometry"/>
                </mxCell>
                <mxCell id="52" value="否" style="text;html=1;strokeColor=none;fillColor=none;align=center;verticalAlign=middle;whiteSpace=wrap;rounded=0;fontFamily=Helvetica;" vertex="1" parent="1">
                    <mxGeometry x="120" y="-1375" width="40" height="20" as="geometry"/>
                </mxCell>
                <mxCell id="54" value="否" style="text;html=1;strokeColor=none;fillColor=none;align=center;verticalAlign=middle;whiteSpace=wrap;rounded=0;fontFamily=Helvetica;" vertex="1" parent="1">
                    <mxGeometry x="120" y="-1275" width="40" height="20" as="geometry"/>
                </mxCell>
                <mxCell id="55" value="是" style="text;html=1;strokeColor=none;fillColor=none;align=center;verticalAlign=middle;whiteSpace=wrap;rounded=0;fontFamily=Helvetica;" vertex="1" parent="1">
                    <mxGeometry x="225" y="-1410" width="40" height="20" as="geometry"/>
                </mxCell>
                <mxCell id="56" value="是" style="text;html=1;strokeColor=none;fillColor=none;align=center;verticalAlign=middle;whiteSpace=wrap;rounded=0;fontFamily=Helvetica;" vertex="1" parent="1">
                    <mxGeometry x="225" y="-1230" width="40" height="20" as="geometry"/>
                </mxCell>
                <mxCell id="57" value="是" style="text;html=1;strokeColor=none;fillColor=none;align=center;verticalAlign=middle;whiteSpace=wrap;rounded=0;fontFamily=Helvetica;" vertex="1" parent="1">
                    <mxGeometry x="20" y="-1275" width="40" height="20" as="geometry"/>
                </mxCell>
            </root>
        </mxGraphModel>
    </diagram>
</mxfile>